<svg width="155" height="149" viewBox="0 0 155 149" fill="none" xmlns="http://www.w3.org/2000/svg">
<path d="M122.72 86.6578C132.349 68.9143 118.568 36.717 101.585 35.8805C79.2037 32.3609 84.7326 51.8045 65.4321 52.8351C46.1316 53.8656 40.8564 45.2508 32.526 60.5129C24.3013 75.5816 39.1232 82.0046 50.519 109.78C56.9869 125.544 87.6296 130.495 96.0643 108.631C104.499 86.7671 110.685 108.837 122.72 86.6578Z" fill="#5FC544"/>
<path fill-rule="evenodd" clip-rule="evenodd" d="M58.6666 132.136C58.4962 129.796 59.5675 127.9 62.0922 126.522C46.3242 121.439 39.0714 109.813 40.928 91.1891H113.989C115.403 106.925 110.533 119.858 91.5969 126.522C93.7986 127.755 94.5958 130.353 94.2624 132.136H58.6666Z" stroke="black" stroke-width="3.7" stroke-miterlimit="1.5" stroke-linecap="round"/>
<path d="M76.0756 126.522H61.25" stroke="black" stroke-width="3.7" stroke-miterlimit="1.5" stroke-linecap="square" stroke-linejoin="round"/>
<path d="M92.1579 126.523H85.0361" stroke="black" stroke-width="3.7" stroke-miterlimit="1.5" stroke-linecap="square" stroke-linejoin="round"/>
<path d="M44.042 91.189C45.25 87.4529 47.8365 85.7646 51.2689 86.5424C48.2921 82.2369 49.4161 76.3824 56.3081 76.3824C55.5987 72.1121 59.2775 67.7276 65.1586 70.0106C67.7957 69.2395 69.6775 69.9283 71.0488 72.1122C73.0389 70.1349 75.2201 70.0291 77.6242 72.1122C81.4399 70.0106 85.0856 71.1412 85.0856 76.3824C89.2669 73.6173 93.8916 73.2276 95.9124 79.0501" stroke="black" stroke-width="3.7" stroke-miterlimit="1.5" stroke-linecap="round" stroke-linejoin="round"/>
<path d="M61.7032 82.2587C61.1021 79.4113 65.5214 77.6172 67.3636 81.0307C68.4382 77.9129 73.5817 78.1262 73.5817 83.2314C76.4038 82.2587 78.6747 84.4124 77.7149 87.374" stroke="black" stroke-width="3.7" stroke-miterlimit="1.5" stroke-linecap="round" stroke-linejoin="round"/>
<path d="M84.585 90L111.154 64" stroke="black" stroke-width="3.7" stroke-miterlimit="1.5" stroke-linecap="square" stroke-linejoin="round"/>
<path d="M92.7598 90L111.154 74" stroke="black" stroke-width="3.7" stroke-miterlimit="1.5" stroke-linecap="square" stroke-linejoin="round"/>
<path d="M102.489 81.6641C104.518 82.5813 104.863 84.2477 103.603 86.6281C107.328 86.2552 109.722 87.5554 110.263 91.189" stroke="black" stroke-width="3.7" stroke-miterlimit="1.5" stroke-linecap="round" stroke-linejoin="round"/>
</svg>
