<svg width="155" height="149" viewBox="0 0 155 149" fill="none" xmlns="http://www.w3.org/2000/svg">
<path d="M114.72 86.6578C124.349 68.9143 110.568 36.717 93.5845 35.8805C71.2037 32.3609 76.7326 51.8045 57.4321 52.8351C38.1316 53.8656 32.8564 45.2508 24.526 60.5129C16.3013 75.5816 31.1232 82.0046 42.519 109.78C48.9869 125.544 79.6296 130.495 88.0643 108.631C96.499 86.7671 102.685 108.837 114.72 86.6578Z" fill="#5FC544"/>
<path d="M53.0791 68.9462C71.7923 66.8186 90.5041 66.7114 109.217 68.9462" stroke="black" stroke-width="3.7" stroke-miterlimit="1.5" stroke-linecap="round"/>
<path d="M62.1228 68.4045C57.8876 77.437 56.8614 84.5602 68.0598 85.3088" stroke="black" stroke-width="3.7" stroke-miterlimit="1.5" stroke-linecap="round"/>
<path d="M99.3489 68.4045C103.625 77.5222 104.299 84.6838 92.765 85.3088" stroke="black" stroke-width="3.7" stroke-miterlimit="1.5" stroke-linecap="round"/>
<path d="M64.4941 67.3099C64.4941 58.4134 71.875 51.1899 80.9664 51.1899C90.0578 51.1899 97.4395 58.4134 97.4395 67.3099" stroke="black" stroke-width="3.7" stroke-miterlimit="1.5" stroke-linecap="round"/>
<path d="M65.8408 67.8126C66.7272 79.4246 65.8408 92.9719 80.9705 92.9719C92.681 92.9719 95.2455 82.2198 95.6357 67.7302" stroke="black" stroke-width="3.7" stroke-miterlimit="1.5" stroke-linecap="round"/>
<path fill-rule="evenodd" clip-rule="evenodd" d="M114.516 108.531C114.516 106.319 113.776 104.197 112.459 102.633C111.143 101.069 109.356 100.19 107.495 100.19H55.1129C53.2508 100.19 51.4649 101.069 50.1483 102.633C48.8316 104.197 48.0918 106.319 48.0918 108.531V131.19H114.516V108.531Z" stroke="black" stroke-width="3.7" stroke-miterlimit="1.5" stroke-linecap="round"/>
<path d="M72.959 100.19V131.19" stroke="black" stroke-width="3.7" stroke-miterlimit="1.5" stroke-linecap="round"/>
<path d="M81.1465 100.19V131.19" stroke="black" stroke-width="3.7" stroke-miterlimit="1.5" stroke-linecap="round"/>
<path d="M89.334 100.19V131.19" stroke="black" stroke-width="3.7" stroke-miterlimit="1.5" stroke-linecap="round"/>
</svg>
