<svg width="155" height="149" viewBox="0 0 155 149" fill="none" xmlns="http://www.w3.org/2000/svg">
<path d="M113.639 97.8037C112.369 117.855 83.4231 138.255 68.4977 130.282C47.5375 121.835 62.6366 108.087 46.733 97.3364C30.8293 86.5859 21.7306 91.232 22.7808 73.9598C23.8178 56.9067 39.8846 59.0121 64.4355 41.1621C78.3697 31.0311 107.138 42.4833 102.65 65.437C98.1628 88.3906 115.225 72.7393 113.639 97.8037Z" fill="#5FC544"/>
<path fill-rule="evenodd" clip-rule="evenodd" d="M30.4248 73.5059L71.632 51.1899L112.395 73.5059V80.2598H30.4248V73.5059Z" stroke="black" stroke-width="3.7" stroke-miterlimit="1.5" stroke-linecap="round"/>
<path d="M31.8203 124.986V118.033H111.337V124.986" stroke="black" stroke-width="3.7" stroke-miterlimit="1.5" stroke-linecap="round"/>
<path d="M117.131 124.986H26.1816V132.33H117.131V124.986Z" stroke="black" stroke-width="3.7" stroke-miterlimit="1.5" stroke-linecap="round"/>
<path d="M30.4248 73.5059H112.395" stroke="black" stroke-width="3.7" stroke-miterlimit="1.5" stroke-linecap="round"/>
<path d="M39.8936 80.2598V86.1609H53.6952V80.2598" stroke="black" stroke-width="3.7" stroke-miterlimit="1.5" stroke-linecap="round"/>
<path d="M64.8066 80.2598V86.1609H78.6083V80.2598" stroke="black" stroke-width="3.7" stroke-miterlimit="1.5" stroke-linecap="round"/>
<path d="M89.3418 80.2598V86.1609H103.143V80.2598" stroke="black" stroke-width="3.7" stroke-miterlimit="1.5" stroke-linecap="round"/>
<path d="M39.8936 118.035V112.133H53.6952V118.035" stroke="black" stroke-width="3.7" stroke-miterlimit="1.5" stroke-linecap="round"/>
<path d="M64.8066 118.035V112.133H78.6083V118.035" stroke="black" stroke-width="3.7" stroke-miterlimit="1.5" stroke-linecap="round"/>
<path d="M89.3418 118.035V112.133H103.143V118.035" stroke="black" stroke-width="3.7" stroke-miterlimit="1.5" stroke-linecap="round"/>
<path d="M41.8213 86.1609V112.131" stroke="black" stroke-width="3.7" stroke-miterlimit="1.5" stroke-linecap="round"/>
<path d="M51.7715 86.1609V112.131" stroke="black" stroke-width="3.7" stroke-miterlimit="1.5" stroke-linecap="round"/>
<path d="M66.7295 86.1609V112.131" stroke="black" stroke-width="3.7" stroke-miterlimit="1.5" stroke-linecap="round"/>
<path d="M76.6787 86.1609V112.131" stroke="black" stroke-width="3.7" stroke-miterlimit="1.5" stroke-linecap="round"/>
<path d="M91.2656 86.1609V112.131" stroke="black" stroke-width="3.7" stroke-miterlimit="1.5" stroke-linecap="round"/>
<path d="M101.215 86.1609V112.131" stroke="black" stroke-width="3.7" stroke-miterlimit="1.5" stroke-linecap="round"/>
</svg>
