<svg width="133" height="133" viewBox="0 0 133 133" fill="none" xmlns="http://www.w3.org/2000/svg">
<path d="M22.0706 46.7415C9.54636 62.7517 18.6278 96.7468 35.7844 100.26C58.0225 107.278 55.3813 87.1901 75.1831 89.2246C94.9849 91.259 99.0309 100.606 109.853 86.8426C120.538 73.2537 106.439 64.5624 99.106 35.3144C94.944 18.7143 64.517 8.9749 52.5748 29.2453C40.6327 49.5157 37.726 26.7288 22.0706 46.7415Z" fill="#5FC544"/>
<path d="M50.7005 92.1175L47.7687 96.2736L40.5292 92.1175L44.4214 85.889C41.9951 84.5691 40.1081 82.6989 38.6141 80.4186L32.9135 83.5357L27.6172 75.9761L34.0985 72.7973C32.8742 70.5507 32.0879 68.0739 31.6217 65.423H25V56.2852H31.6217C31.6723 54.0667 32.0093 51.8201 32.9135 49.5174L27.6172 45.0693L32.9135 38.3802L38.6141 41.4804C40.2878 39.2114 42.1917 37.2625 44.4214 35.7742L40.5292 29.5906L47.7687 25.1986L51.8126 31.2755C54.3231 30.1691 56.8785 29.5457 59.4788 29.5906V21.475H68.7739V29.5906C71.4417 29.3715 74.1095 29.7535 76.7716 31.2755L80.7031 25.1986L87.7797 29.5906L84.4267 35.7742C86.7182 37.4366 88.4087 39.3631 89.678 41.4804L95.8729 38.3802L99.7426 45.0693L94.334 49.5174C95.2214 51.7078 95.6875 53.9712 95.8729 56.2852H103V65.423H95.8729C95.6763 67.883 95.1203 70.3429 94.334 72.7973L99.7426 76.8354L95.8729 83.5357L89.678 80.4186C88.0717 82.5697 86.3138 84.3782 84.4267 85.889L87.7797 92.1175L80.7031 96.2736L77.6309 92.8139" stroke="black" stroke-width="3.3" stroke-miterlimit="1.5" stroke-linecap="round" stroke-linejoin="round"/>
<path fill-rule="evenodd" clip-rule="evenodd" d="M59.6198 106.534C58.665 106.534 57.8956 105.759 57.8956 104.805C57.8956 103.019 57.8956 100.48 57.8956 100.48H57.4912C56.6038 100.48 55.8793 99.778 55.8512 98.8962C55.4581 86.0853 50.2686 84.1365 46.3877 78.756C33.2959 60.5814 40.8668 41.0028 59.0414 37.442C61.6979 36.9028 64.4218 36.8186 67.1064 37.1893C91.8521 40.5367 92.8687 66.0068 80.3049 78.756C74.9806 84.1589 72.0095 91.6174 72.032 98.8064C72.0432 99.2444 71.8747 99.6656 71.5714 99.9802C71.2625 100.295 70.8413 100.469 70.4032 100.469C70.4032 100.48 70.4032 100.48 70.4032 100.48V104.805C70.4032 105.759 69.6281 106.534 68.679 106.534C66.292 106.534 62.0067 106.534 59.6198 106.534Z" stroke="black" stroke-width="3.3" stroke-miterlimit="1.5" stroke-linecap="round" stroke-linejoin="round"/>
<path d="M55.8398 98.5708H72.0319" stroke="black" stroke-width="3.3" stroke-miterlimit="1.5" stroke-linecap="round" stroke-linejoin="round"/>
<path d="M63.9375 98.5705V74.3359" stroke="black" stroke-width="3.3" stroke-miterlimit="1.5" stroke-linecap="round" stroke-linejoin="round"/>
<path d="M58.2324 72.9653L61.1361 75.7735L64.0678 72.9653L67.0445 75.7735L69.8976 72.9653" stroke="black" stroke-width="3.3" stroke-miterlimit="1.5" stroke-linecap="round" stroke-linejoin="round"/>
<path d="M56.1963 62.5107L60.4703 70.5141" stroke="black" stroke-width="3.3" stroke-miterlimit="1.5" stroke-linecap="round" stroke-linejoin="round"/>
<path d="M71.6836 62.5107L67.4096 70.5141" stroke="black" stroke-width="3.3" stroke-miterlimit="1.5" stroke-linecap="round" stroke-linejoin="round"/>
<path d="M63.6455 60.7157L63.887 69.1234" stroke="black" stroke-width="3.3" stroke-miterlimit="1.5" stroke-linecap="round" stroke-linejoin="round"/>
</svg>
