<svg width="121" height="119" viewBox="0 0 121 119" fill="none" xmlns="http://www.w3.org/2000/svg">
<path d="M29.1332 22.5067C10.9476 31.5878 4.55169 66.1889 18.5376 76.7284C35.6078 92.6155 41.848 73.34 58.8577 83.6802C75.8674 94.0205 75.5078 104.199 91.1915 96.4163C106.676 88.732 97.6753 74.8287 103.612 45.2656C106.981 28.4866 83.684 6.62555 64.1948 19.8041C44.7056 32.9826 51.8652 11.1553 29.1332 22.5067Z" fill="#5FC544"/>
<path d="M47.3154 30.0513H96.8705V60.5069H47.3154" stroke="black" stroke-width="2.76855" stroke-miterlimit="1.5"/>
<path d="M66.7452 42.1156C66.518 41.6632 66.2149 41.304 65.8364 41.0384C65.4574 40.7733 64.9958 40.6403 64.4505 40.6403C64.1928 40.6403 63.9316 40.6717 63.6667 40.734C63.4013 40.7968 63.1627 40.8942 62.951 41.0267C62.7388 41.1597 62.5684 41.3274 62.4398 41.5302C62.3107 41.7334 62.2467 41.9831 62.2467 42.2795C62.2467 42.7947 62.4207 43.1693 62.7692 43.4035C63.1173 43.6377 63.6398 43.8409 64.3369 44.0123L65.8591 44.387C66.6012 44.5589 67.2182 44.9064 67.7108 45.429C68.2029 45.9521 68.4492 46.6041 68.4492 47.3843C68.4492 47.9777 68.3315 48.4891 68.097 48.9181C67.8621 49.3476 67.5518 49.6988 67.1655 49.9718C66.7793 50.2453 66.3362 50.4444 65.8364 50.569C65.3366 50.694 64.829 50.7563 64.3142 50.7563C63.4963 50.7563 62.7351 50.5966 62.0308 50.2763C61.3265 49.9564 60.7244 49.4061 60.2246 48.6254L61.5196 47.7121C61.8223 48.2118 62.2049 48.6099 62.667 48.9064C63.1287 49.2033 63.678 49.3513 64.3142 49.3513C64.6168 49.3513 64.9199 49.3162 65.223 49.2459C65.5256 49.1757 65.7946 49.0666 66.0295 48.9181C66.264 48.7701 66.4535 48.5786 66.5975 48.3444C66.7411 48.1102 66.8134 47.8372 66.8134 47.5248C66.8134 46.9787 66.6161 46.5844 66.2226 46.3423C65.8287 46.1006 65.3516 45.9091 64.7913 45.7686L63.3372 45.4173C63.1555 45.3705 62.9092 45.2928 62.5988 45.1832C62.288 45.074 61.9854 44.9101 61.69 44.6914C61.3947 44.4732 61.1407 44.188 60.9289 43.8367C60.7167 43.4855 60.6108 43.0522 60.6108 42.5371C60.6108 41.9751 60.7203 41.4834 60.9403 41.0619C61.1597 40.6404 61.4551 40.2971 61.8264 40.0315C62.1971 39.7664 62.6175 39.5674 63.0873 39.4344C63.5567 39.3018 64.0415 39.2354 64.5414 39.2354C65.2834 39.2354 65.9727 39.3838 66.6089 39.6803C67.245 39.9772 67.7371 40.4844 68.0857 41.2023L66.7452 42.1156Z" fill="black" stroke="black" stroke-width="0.374129"/>
<path d="M83.7081 30.5724V7.2412C83.7081 5.90128 82.6218 4.81494 81.2819 4.81494C73.481 4.81494 49.098 4.81494 41.2974 4.81494C39.9574 4.81494 38.8711 5.90128 38.8711 7.2412C38.8711 19.1884 38.8711 71.6711 38.8711 83.6183C38.8711 84.9582 39.9574 86.0446 41.2974 86.0446C49.098 86.0446 73.481 86.0446 81.2819 86.0446C82.6218 86.0446 83.7081 84.9582 83.7081 83.6183C83.7081 79.6785 83.7081 71.3305 83.7081 61.4816" stroke="black" stroke-width="2.76855" stroke-miterlimit="1.5"/>
<path d="M38.8711 16.1943H83.7081" stroke="black" stroke-width="2.76855" stroke-miterlimit="1.5" stroke-linecap="round"/>
<path d="M38.8711 75.0176H83.7081" stroke="black" stroke-width="2.76855" stroke-miterlimit="1.5" stroke-linecap="round"/>
<path d="M58.4971 79.8862H64.0815" stroke="black" stroke-width="2.76855" stroke-miterlimit="1.5" stroke-linecap="round"/>
<path d="M56.3057 11.3257H66.2734" stroke="black" stroke-width="2.76855" stroke-miterlimit="1.5" stroke-linecap="round"/>
<path d="M73.2905 13.0458C74.117 13.0458 74.787 12.3758 74.787 11.5492C74.787 10.7227 74.117 10.0527 73.2905 10.0527C72.464 10.0527 71.7939 10.7227 71.7939 11.5492C71.7939 12.3758 72.464 13.0458 73.2905 13.0458Z" fill="black"/>
<path d="M90.7172 37.2435C91.5437 37.2435 92.2137 36.5735 92.2137 35.747C92.2137 34.9205 91.5437 34.2505 90.7172 34.2505C89.8907 34.2505 89.2207 34.9205 89.2207 35.747C89.2207 36.5735 89.8907 37.2435 90.7172 37.2435Z" fill="black"/>
<path d="M90.7172 57.724C91.5437 57.724 92.2137 57.054 92.2137 56.2275C92.2137 55.401 91.5437 54.731 90.7172 54.731C89.8907 54.731 89.2207 55.401 89.2207 56.2275C89.2207 57.054 89.8907 57.724 90.7172 57.724Z" fill="black"/>
<path d="M82.197 48.2206C83.7388 48.2206 84.9887 46.9707 84.9887 45.4289C84.9887 43.8871 83.7388 42.6372 82.197 42.6372C80.6552 42.6372 79.4053 43.8871 79.4053 45.4289C79.4053 46.9707 80.6552 48.2206 82.197 48.2206Z" fill="black"/>
<path d="M46.5631 47.6388C47.7834 47.6388 48.7726 46.6496 48.7726 45.4293C48.7726 44.209 47.7834 43.2197 46.5631 43.2197C45.3428 43.2197 44.3535 44.209 44.3535 45.4293C44.3535 46.6496 45.3428 47.6388 46.5631 47.6388Z" fill="black"/>
<path d="M64.337 54.7877C69.7078 54.7877 74.0616 50.4338 74.0616 45.063C74.0616 39.6923 69.7078 35.3384 64.337 35.3384C58.9662 35.3384 54.6123 39.6923 54.6123 45.063C54.6123 50.4338 58.9662 54.7877 64.337 54.7877Z" stroke="black" stroke-width="2.76855" stroke-miterlimit="1.5" stroke-linecap="round"/>
<path d="M47.3154 35.2466H86.0314C86.5055 38.5374 88.3542 40.454 91.7122 40.861V49.6942C88.3311 50.5361 86.2786 52.707 86.0314 56.6827H47.3154" stroke="black" stroke-width="2.76855" stroke-miterlimit="1.5"/>
<path fill-rule="evenodd" clip-rule="evenodd" d="M63.5635 37.7383V52.7034H65.06V37.7383H63.5635Z" fill="black" stroke="black" stroke-width="0.374129"/>
</svg>
