<svg width="126" height="124" viewBox="0 0 126 124" fill="none" xmlns="http://www.w3.org/2000/svg">
<path d="M28.1101 28.0215C10.8296 38.7251 7.61954 73.7656 22.5094 82.9842C40.9587 97.2463 45.413 77.4816 63.2957 86.2257C81.1784 94.9697 81.7497 105.139 96.6573 95.9564C111.376 86.8904 101.143 73.867 104.356 43.8854C106.179 26.8689 80.9832 7.22613 62.7786 22.129C44.574 37.0319 49.7108 14.6421 28.1101 28.0215Z" fill="#5FC544"/>
<path d="M69.5313 67.1409C68.967 67.2108 68.398 67.0709 67.9316 66.7491C64.1304 64.0347 61.6725 59.8231 61.1735 55.1778C60.7071 49.8656 62.4934 44.6 66.0986 40.6729C66.8915 39.7821 68.2301 39.6422 69.1862 40.3465C72.9686 43.0422 75.4219 47.2258 75.9349 51.8431C76.406 57.1554 74.6243 62.421 71.0191 66.348C70.6413 66.7958 70.1096 67.0756 69.5313 67.1409ZM68.0715 43.1868C65.7069 46.6381 64.6248 50.8031 65.0073 54.968C65.3571 58.2794 66.7936 61.3809 69.0976 63.7828C71.4575 60.3362 72.5442 56.1759 72.1618 52.0157C71.8026 48.6996 70.3475 45.5934 68.0342 43.1915L68.0715 43.1868Z" fill="black"/>
<path d="M95.1528 50.5275C94.7936 50.9659 94.2853 51.255 93.7209 51.339C89.0943 51.9779 84.4163 50.6067 80.8624 47.5705C76.8747 44.0306 74.5567 38.9748 74.4774 33.6439C74.4448 32.4546 75.317 31.4332 76.5016 31.284C81.1049 30.645 85.7596 31.9976 89.3042 35.0011C93.2965 38.5364 95.6145 43.5875 95.6938 48.9184C95.7218 49.506 95.5305 50.0797 95.1528 50.5275ZM77.6396 34.1197C78.2926 38.2519 80.368 42.0251 83.5069 44.7861C86.0347 46.9502 89.2109 48.2188 92.5363 48.382C91.8833 44.2544 89.8125 40.486 86.6784 37.7249C84.1365 35.5608 80.951 34.3016 77.6163 34.1476L77.6396 34.1197Z" fill="black"/>
<path d="M46.168 83.9262C45.6876 84.2247 45.1092 84.3367 44.5542 84.2387C39.9649 83.3619 35.9726 80.5635 33.58 76.5525C30.9355 71.9212 30.3572 66.3944 31.9895 61.3154C32.3393 60.1774 33.496 59.4918 34.662 59.7296C39.228 60.5971 43.2064 63.3675 45.599 67.3505C48.2481 71.9772 48.8311 77.5086 47.1987 82.583C47.0308 83.1473 46.667 83.6277 46.168 83.9262ZM34.8206 62.7799C34.1163 66.9028 34.8719 71.1423 36.9613 74.7616C38.6637 77.6206 41.2662 79.8359 44.363 81.0579C45.0673 76.9396 44.3117 72.7047 42.2269 69.0855C40.5106 66.2219 37.8941 64.0111 34.7879 62.7938L34.8206 62.7799Z" fill="black"/>
<path d="M55.977 59.3376C55.6179 59.776 55.1095 60.0652 54.5451 60.1492C49.9185 60.7881 45.2406 59.4169 41.6866 56.3807C37.6989 52.8407 35.381 47.785 35.3017 42.4541C35.269 41.2648 36.1412 40.2434 37.3258 40.0942C41.9291 39.4552 46.5838 40.8077 50.1284 43.8113C54.1207 47.3466 56.4387 52.3977 56.518 57.7286C56.546 58.3162 56.3501 58.8899 55.977 59.3376ZM38.4592 42.9298C39.1121 47.0621 41.1876 50.8352 44.3264 53.5963C46.8543 55.7604 50.0304 57.029 53.3558 57.1922C52.7029 53.0646 50.6321 49.2961 47.4979 46.5351C44.9561 44.371 41.7706 43.1117 38.4358 42.9578L38.4592 42.9298Z" fill="black"/>
<path d="M72.4213 84.5652C72.0622 85.0036 71.5538 85.2927 70.9895 85.3767C66.3628 86.0157 61.6849 84.6445 58.131 81.6082C54.1433 78.0683 51.8253 73.0126 51.746 67.6817C51.7134 66.4923 52.5855 65.4709 53.7702 65.3217C58.3735 64.6827 63.0281 66.0353 66.5727 69.0389C70.5651 72.5741 72.883 77.6252 72.9623 82.9561C72.9903 83.5484 72.7991 84.1174 72.4213 84.5652ZM54.9082 68.162C55.5611 72.2943 57.6366 76.0674 60.7754 78.8285C63.3033 80.9926 66.4794 82.2612 69.8048 82.4244C69.1519 78.2968 67.0811 74.5283 63.9469 71.7673C61.4051 69.6032 58.2196 68.3439 54.8848 68.19L54.9082 68.162Z" fill="black"/>
<path d="M54.046 42.5942C53.5376 42.347 53.1365 41.9179 52.922 41.3909C51.2243 37.0394 51.4668 32.1703 53.5889 28.01C56.1028 23.3041 60.4776 19.8761 65.6452 18.5562C66.7926 18.2437 67.9912 18.8593 68.411 19.974C70.104 24.3022 69.8708 29.1434 67.7767 33.2896C65.2675 37.9955 60.8973 41.4282 55.7297 42.7481C55.17 42.9114 54.5683 42.8554 54.046 42.5942ZM65.9204 21.737C62.054 23.3321 58.8685 26.2284 56.9143 29.9269C55.3985 32.8885 54.9088 36.2745 55.5198 39.544C59.3815 37.9489 62.567 35.0573 64.5212 31.3634C66.0323 28.3878 66.5127 24.9971 65.8878 21.7183L65.9204 21.737Z" fill="black"/>
<path d="M79.1036 77.7884C78.5952 77.5412 78.1941 77.1121 77.9796 76.5851C76.2819 72.2336 76.5244 67.3645 78.6465 63.2042C81.1604 58.4983 85.5352 55.0703 90.7028 53.7504C91.8502 53.4379 93.0488 54.0536 93.4686 55.1682C95.1616 59.4964 94.9284 64.3376 92.8343 68.4838C90.3251 73.1898 85.9549 76.6224 80.7873 77.9423C80.2276 78.1056 79.626 78.0543 79.1036 77.7884ZM90.978 56.9359C87.1116 58.5309 83.9261 61.4273 81.9719 65.1258C80.4561 68.0874 79.9664 71.4734 80.5774 74.7429C84.4392 73.1478 87.6246 70.2561 89.5788 66.5623C91.09 63.5867 91.5703 60.196 90.9454 56.9172L90.978 56.9359Z" fill="black"/>
</svg>
