<svg width="121" height="124" viewBox="0 0 121 124" fill="none" xmlns="http://www.w3.org/2000/svg">
<path d="M108.5 63.0222C113.739 43.3821 92.0492 15.6749 74.8898 19.1742C51.6812 21.4429 61.9911 38.884 42.9786 44.7809C23.966 50.6778 16.5775 43.6673 12.0223 60.573C7.52484 77.2644 23.9032 79.7279 42.1225 103.754C52.4631 117.391 84.2718 114.413 87.3045 91.0827C90.3372 67.7523 101.95 87.5722 108.5 63.0222Z" fill="#5FC544"/>
<path fill-rule="evenodd" clip-rule="evenodd" d="M60.9258 28.3313V51.0633C60.9258 52.0879 61.7574 52.9195 62.782 52.9195C63.8066 52.9195 64.6382 52.0879 64.6382 51.0633V28.3313C64.6382 27.3067 63.8066 26.4751 62.782 26.4751C61.7574 26.4751 60.9258 27.3067 60.9258 28.3313Z" fill="black"/>
<path fill-rule="evenodd" clip-rule="evenodd" d="M83.2792 50.7161L78.9565 27.9842C78.7649 26.9788 77.7922 26.3165 76.7854 26.5081C75.7801 26.6997 75.1178 27.6708 75.3094 28.6777L79.6321 51.4096C79.8237 52.4164 80.7963 53.0787 81.8031 52.8872C82.8085 52.6956 83.4708 51.723 83.2792 50.7161Z" fill="black"/>
<path fill-rule="evenodd" clip-rule="evenodd" d="M62.8166 57.0116C63.4343 57.8773 64.1962 58.6599 65.0663 59.3386C68.6318 62.1169 73.9599 63.0228 77.95 60.6928C79.3696 59.8627 80.6511 58.6228 81.6164 56.8854C83.284 59.735 85.6184 61.3522 88.079 61.9595C93.6536 63.3361 100.413 59.4529 102.783 51.6004L103 50.8801L90.3658 26.4761H34.7016L23 50.892L23.1886 51.5647C25.3908 59.4306 32.6642 62.8995 38.4318 61.416C40.8271 60.8012 43.0204 59.3564 44.5262 56.9938C46.0602 59.5925 48.3827 61.125 50.8759 61.7338C55.1482 62.7777 60.0857 61.0507 62.8166 57.0116ZM64.8347 51.2736C64.6015 53.3348 65.7257 55.145 67.3487 56.4102C69.7678 58.2976 73.3688 59.0698 76.0759 57.4868C77.9054 56.4191 79.2226 54.2748 79.6102 50.8549L83.2751 50.7019C84.169 55.194 86.3267 57.7036 88.97 58.3555C92.7997 59.3014 97.1462 56.4221 98.9995 51.2261C97.0809 47.5196 88.1072 30.1885 88.1072 30.1885H37.0389C37.0389 30.1885 26.9634 51.2098 26.9634 51.2113C28.7305 56.3879 33.5478 58.8396 37.5082 57.8209C40.1678 57.1378 42.2928 54.8168 42.768 50.8445L46.4581 50.8816C46.8739 55.0915 49.0732 57.4719 51.758 58.1283C55.7927 59.1143 60.604 56.3359 61.143 50.8816L61.146 50.8549L64.8377 51.2469L64.8347 51.2736Z" fill="black"/>
<path fill-rule="evenodd" clip-rule="evenodd" d="M46.6 28.0245L42.7807 50.7565C42.6114 51.7662 43.293 52.7241 44.3043 52.8948C45.314 53.0641 46.2718 52.381 46.4411 51.3712L50.262 28.6393C50.4313 27.628 49.7497 26.6702 48.7384 26.5009C47.7286 26.3316 46.7708 27.0132 46.6 28.0245Z" fill="black"/>
<path fill-rule="evenodd" clip-rule="evenodd" d="M24.9754 52.9209H100.587C101.612 52.9209 102.443 52.0893 102.443 51.0647C102.443 50.0401 101.612 49.2085 100.587 49.2085H24.9754C23.9507 49.2085 23.1191 50.0401 23.1191 51.0647C23.1191 52.0893 23.9507 52.9209 24.9754 52.9209Z" fill="black"/>
<path fill-rule="evenodd" clip-rule="evenodd" d="M43.4517 95.6988V75.3057H55.9997V95.6988C55.9997 96.7235 56.8313 97.5551 57.8559 97.5551C58.8806 97.5551 59.7122 96.7235 59.7122 95.6988V71.5933H39.7393V95.6988C39.7393 96.7235 40.5723 97.5551 41.5955 97.5551C42.6201 97.5551 43.4517 96.7235 43.4517 95.6988Z" fill="black"/>
<path fill-rule="evenodd" clip-rule="evenodd" d="M86.46 64.4556H70.5752V80.8541H86.46V64.4556ZM74.2876 68.168H82.7476V77.1417H74.2876V68.168Z" fill="black"/>
<path fill-rule="evenodd" clip-rule="evenodd" d="M28.3574 58.2771V97.5547H97.379V58.6885C97.379 57.6653 96.5474 56.8322 95.5228 56.8322C94.4981 56.8322 93.6666 57.6653 93.6666 58.6885V93.8423C84.2162 93.8423 41.5217 93.8423 32.0699 93.8423C32.0699 86.2912 32.0699 58.2771 32.0699 58.2771C32.0699 57.2525 31.2383 56.4209 30.2136 56.4209C29.189 56.4209 28.3574 57.2525 28.3574 58.2771Z" fill="black"/>
</svg>
