<svg width="131" height="133" viewBox="0 0 131 133" fill="none" xmlns="http://www.w3.org/2000/svg">
<path d="M111.613 80.1273C121.917 62.6057 108.433 30.1045 90.9635 28.8842C67.9943 24.8592 73.2607 44.4232 53.3635 45.017C33.4663 45.6109 28.2233 36.8788 19.3101 51.9489C10.5099 66.8279 25.6316 73.5846 36.7565 101.611C43.0707 117.517 74.5161 123.16 83.6817 101.492C92.8473 79.8244 98.7327 102.029 111.613 80.1273Z" fill="#5FC544"/>
<path fill-rule="evenodd" clip-rule="evenodd" d="M67.5567 27.4751L108.09 40.8857L108.3 96.0038L27 95.8906L27.0334 40.887L67.5567 27.4751ZM67.5569 30.8162L30.204 43.1788L30.1739 92.7231L105.116 92.8274L104.927 43.1801L67.5569 30.8162Z" fill="black"/>
<path fill-rule="evenodd" clip-rule="evenodd" d="M33.54 47.1079H101.873V93.8899H98.7012V50.2799H36.712V94.4155H33.54V47.1079Z" fill="black"/>
<path fill-rule="evenodd" clip-rule="evenodd" d="M66.1745 60.1334V94.3564H63.0026V63.3186L43.2276 63.4006V94.4154H40.0557V60.2417L66.1745 60.1334Z" fill="black"/>
<path fill-rule="evenodd" clip-rule="evenodd" d="M69.2559 60.2355H95.3566V94.3975H92.1846V63.4074H72.4278V93.89H69.2559V60.2355Z" fill="black"/>
</svg>
