<svg width="114" height="110" viewBox="0 0 114 110" fill="none" xmlns="http://www.w3.org/2000/svg">
<path d="M82.9062 95.5567C102.089 88.834 112.784 55.3116 100.235 43.0973C85.2973 25.1902 76.6832 43.5282 61.1085 31.1315C45.5337 18.7348 47.1702 8.68197 30.6324 14.4314C14.3044 20.1078 21.486 35.0325 11.8799 63.6147C6.42777 79.8369 26.7915 104.454 47.7829 93.8298C68.7744 83.2061 58.9274 103.96 82.9062 95.5567Z" fill="#5FC544"/>
<path d="M84.7032 32.1592H32.6836V83.7668H84.7032V32.1592Z" stroke="black" stroke-width="2.82472" stroke-miterlimit="1.5"/>
<path d="M32.6838 44.7378H25.6699" stroke="black" stroke-width="2.82472" stroke-miterlimit="1.5"/>
<path d="M83.8504 44.7378H90.8643" stroke="black" stroke-width="2.82472" stroke-miterlimit="1.5"/>
<path d="M45.334 32.1594V25.1455" stroke="black" stroke-width="2.82472" stroke-miterlimit="1.5"/>
<path d="M71.5107 83.7674V90.7812" stroke="black" stroke-width="2.82472" stroke-miterlimit="1.5"/>
<path d="M32.6845 58.0972H19.9014" stroke="black" stroke-width="2.82472" stroke-miterlimit="1.5"/>
<path d="M83.8507 58.0972H96.6338" stroke="black" stroke-width="2.82472" stroke-miterlimit="1.5"/>
<path d="M58.6934 32.1586V19.3755" stroke="black" stroke-width="2.82472" stroke-miterlimit="1.5"/>
<path d="M58.1514 83.7677V96.5508" stroke="black" stroke-width="2.82472" stroke-miterlimit="1.5"/>
<path d="M32.6838 70.5889H25.6699" stroke="black" stroke-width="2.82472" stroke-miterlimit="1.5"/>
<path d="M83.8504 70.5889H90.8643" stroke="black" stroke-width="2.82472" stroke-miterlimit="1.5"/>
<path d="M71.1865 32.1594V25.1455" stroke="black" stroke-width="2.82472" stroke-miterlimit="1.5"/>
<path d="M45.6602 83.7674V90.7812" stroke="black" stroke-width="2.82472" stroke-miterlimit="1.5"/>
<path fill-rule="evenodd" clip-rule="evenodd" d="M23.7802 41.1953C25.6763 41.1953 27.2157 42.7347 27.2157 44.6308C27.2157 46.5268 25.6763 48.0662 23.7802 48.0662C21.8841 48.0662 20.3447 46.5268 20.3447 44.6308C20.3447 42.7347 21.8841 41.1953 23.7802 41.1953ZM23.7802 43.401C24.4589 43.401 25.0099 43.9521 25.0099 44.6308C25.0099 45.3095 24.4589 45.8605 23.7802 45.8605C23.1015 45.8605 22.5504 45.3095 22.5504 44.6308C22.5504 43.9521 23.1015 43.401 23.7802 43.401Z" fill="black"/>
<path fill-rule="evenodd" clip-rule="evenodd" d="M92.4884 41.1953C90.5923 41.1953 89.0529 42.7347 89.0529 44.6308C89.0529 46.5268 90.5923 48.0662 92.4884 48.0662C94.3844 48.0662 95.9238 46.5268 95.9238 44.6308C95.9238 42.7347 94.3844 41.1953 92.4884 41.1953ZM92.4884 43.401C93.1671 43.401 93.7181 43.9521 93.7181 44.6308C93.7181 45.3095 93.1671 45.8605 92.4884 45.8605C91.8096 45.8605 91.2586 45.3095 91.2586 44.6308C91.2586 43.9521 91.8096 43.401 92.4884 43.401Z" fill="black"/>
<path fill-rule="evenodd" clip-rule="evenodd" d="M41.7197 23.79C41.7197 25.686 43.2591 27.2254 45.1552 27.2254C47.0513 27.2254 48.5907 25.686 48.5907 23.79C48.5907 21.8939 47.0513 20.3545 45.1552 20.3545C43.2591 20.3545 41.7197 21.8939 41.7197 23.79ZM43.9254 23.79C43.9254 23.1112 44.4765 22.5602 45.1552 22.5602C45.8339 22.5602 46.385 23.1112 46.385 23.79C46.385 24.4687 45.8339 25.0197 45.1552 25.0197C44.4765 25.0197 43.9254 24.4687 43.9254 23.79Z" fill="black"/>
<path fill-rule="evenodd" clip-rule="evenodd" d="M75.3115 92.7271C75.3115 90.8311 73.7721 89.2917 71.8761 89.2917C69.98 89.2917 68.4406 90.8311 68.4406 92.7271C68.4406 94.6232 69.98 96.1626 71.8761 96.1626C73.7721 96.1626 75.3115 94.6232 75.3115 92.7271ZM73.1058 92.7271C73.1058 93.4059 72.5548 93.9569 71.8761 93.9569C71.1973 93.9569 70.6463 93.4059 70.6463 92.7271C70.6463 92.0484 71.1973 91.4974 71.8761 91.4974C72.5548 91.4974 73.1058 92.0484 73.1058 92.7271Z" fill="black"/>
<path fill-rule="evenodd" clip-rule="evenodd" d="M18.4355 54.1748C20.3315 54.1748 21.8709 55.7142 21.8709 57.6103C21.8709 59.5063 20.3315 61.0457 18.4355 61.0457C16.5394 61.0457 15 59.5063 15 57.6103C15 55.7142 16.5394 54.1748 18.4355 54.1748ZM18.4355 56.3805C19.1142 56.3805 19.6652 56.9315 19.6652 57.6103C19.6652 58.289 19.1142 58.84 18.4355 58.84C17.7567 58.84 17.2057 58.289 17.2057 57.6103C17.2057 56.9315 17.7567 56.3805 18.4355 56.3805Z" fill="black"/>
<path fill-rule="evenodd" clip-rule="evenodd" d="M97.8321 54.1748C95.9361 54.1748 94.3966 55.7142 94.3966 57.6103C94.3966 59.5063 95.9361 61.0457 97.8321 61.0457C99.7282 61.0457 101.268 59.5063 101.268 57.6103C101.268 55.7142 99.7282 54.1748 97.8321 54.1748ZM97.8321 56.3805C98.5108 56.3805 99.0619 56.9315 99.0619 57.6103C99.0619 58.289 98.5108 58.84 97.8321 58.84C97.1534 58.84 96.6024 58.289 96.6024 57.6103C96.6024 56.9315 97.1534 56.3805 97.8321 56.3805Z" fill="black"/>
<path fill-rule="evenodd" clip-rule="evenodd" d="M55.6133 17.9106C55.6133 19.8066 57.1527 21.346 59.0487 21.346C60.9448 21.346 62.4842 19.8066 62.4842 17.9106C62.4842 16.0145 60.9448 14.4751 59.0487 14.4751C57.1527 14.4751 55.6133 16.0145 55.6133 17.9106ZM57.819 17.9106C57.819 17.2318 58.37 16.6808 59.0487 16.6808C59.7275 16.6808 60.2785 17.2318 60.2785 17.9106C60.2785 18.5893 59.7275 19.1403 59.0487 19.1403C58.37 19.1403 57.819 18.5893 57.819 17.9106Z" fill="black"/>
<path fill-rule="evenodd" clip-rule="evenodd" d="M61.5693 98.0147C61.5693 96.1187 60.0299 94.5793 58.1339 94.5793C56.2378 94.5793 54.6984 96.1187 54.6984 98.0147C54.6984 99.9108 56.2378 101.45 58.1339 101.45C60.0299 101.45 61.5693 99.9108 61.5693 98.0147ZM59.3636 98.0147C59.3636 98.6935 58.8126 99.2445 58.1339 99.2445C57.4551 99.2445 56.9041 98.6935 56.9041 98.0147C56.9041 97.336 57.4551 96.785 58.1339 96.785C58.8126 96.785 59.3636 97.336 59.3636 98.0147Z" fill="black"/>
<path fill-rule="evenodd" clip-rule="evenodd" d="M23.7802 67.1523C25.6763 67.1523 27.2157 68.6917 27.2157 70.5878C27.2157 72.4839 25.6763 74.0233 23.7802 74.0233C21.8841 74.0233 20.3447 72.4839 20.3447 70.5878C20.3447 68.6917 21.8841 67.1523 23.7802 67.1523ZM23.7802 69.358C24.4589 69.358 25.0099 69.9091 25.0099 70.5878C25.0099 71.2665 24.4589 71.8176 23.7802 71.8176C23.1015 71.8176 22.5504 71.2665 22.5504 70.5878C22.5504 69.9091 23.1015 69.358 23.7802 69.358Z" fill="black"/>
<path fill-rule="evenodd" clip-rule="evenodd" d="M92.4884 67.1523C90.5923 67.1523 89.0529 68.6917 89.0529 70.5878C89.0529 72.4839 90.5923 74.0233 92.4884 74.0233C94.3844 74.0233 95.9238 72.4839 95.9238 70.5878C95.9238 68.6917 94.3844 67.1523 92.4884 67.1523ZM92.4884 69.358C93.1671 69.358 93.7181 69.9091 93.7181 70.5878C93.7181 71.2665 93.1671 71.8176 92.4884 71.8176C91.8096 71.8176 91.2586 71.2665 91.2586 70.5878C91.2586 69.9091 91.8096 69.358 92.4884 69.358Z" fill="black"/>
<path fill-rule="evenodd" clip-rule="evenodd" d="M67.6768 23.2543C67.6768 25.1504 69.2162 26.6898 71.1122 26.6898C73.0083 26.6898 74.5477 25.1504 74.5477 23.2543C74.5477 21.3583 73.0083 19.8188 71.1122 19.8188C69.2162 19.8188 67.6768 21.3583 67.6768 23.2543ZM69.8825 23.2543C69.8825 22.5756 70.4335 22.0245 71.1122 22.0245C71.7909 22.0245 72.342 22.5756 72.342 23.2543C72.342 23.933 71.7909 24.4841 71.1122 24.4841C70.4335 24.4841 69.8825 23.933 69.8825 23.2543Z" fill="black"/>
<path fill-rule="evenodd" clip-rule="evenodd" d="M49.3545 92.7271C49.3545 90.8311 47.8151 89.2917 45.919 89.2917C44.023 89.2917 42.4836 90.8311 42.4836 92.7271C42.4836 94.6232 44.023 96.1626 45.919 96.1626C47.8151 96.1626 49.3545 94.6232 49.3545 92.7271ZM47.1488 92.7271C47.1488 93.4059 46.5977 93.9569 45.919 93.9569C45.2403 93.9569 44.6893 93.4059 44.6893 92.7271C44.6893 92.0484 45.2403 91.4974 45.919 91.4974C46.5977 91.4974 47.1488 92.0484 47.1488 92.7271Z" fill="black"/>
<path d="M38.6406 68.0299V37.8828H77.8945V42.4626" stroke="black" stroke-width="2.82472" stroke-miterlimit="1.5"/>
<path d="M77.8945 47.751V77.764H38.6406V73.0041" stroke="black" stroke-width="2.82472" stroke-miterlimit="1.5"/>
<path d="M58.4229 77.7621V56.9722" stroke="black" stroke-width="2.82472" stroke-miterlimit="1.5"/>
<path fill-rule="evenodd" clip-rule="evenodd" d="M58.2671 63.7218C58.8041 54.7506 54.5459 50.3342 45.7518 50.2256C44.4987 58.692 48.5204 63.3008 58.2671 63.7218Z" stroke="black" stroke-width="2.82472" stroke-miterlimit="1.5"/>
<path fill-rule="evenodd" clip-rule="evenodd" d="M58.4682 59.7042C57.9313 50.7331 62.1895 46.3166 70.9835 46.208C72.2366 54.6744 68.2149 59.2832 58.4682 59.7042Z" stroke="black" stroke-width="2.82472" stroke-miterlimit="1.5"/>
<path d="M59.2686 58.6579L63.6263 52.9561" stroke="black" stroke-width="2.82472" stroke-miterlimit="1.5"/>
<path d="M57.495 62.7568L51.9229 57.9014" stroke="black" stroke-width="2.82472" stroke-miterlimit="1.5"/>
</svg>
